<svg width="5778" height="2650" xmlns="http://www.w3.org/2000/svg" xmlns:xlink="http://www.w3.org/1999/xlink" xml:space="preserve" overflow="hidden"><defs><clipPath id="clip0"><rect x="5072" y="4701" width="5778" height="2650"/></clipPath></defs><g clip-path="url(#clip0)" transform="translate(-5072 -4701)"><path d="M7989.67 7006.01 7989.67 7151.14 8068.17 7151.14C8097.91 7151.14 8120.11 7144.7 8134.78 7131.81 8149.45 7118.92 8156.79 7101.18 8156.79 7078.58 8156.79 7055.58 8149.45 7037.73 8134.78 7025.04 8120.11 7012.36 8097.91 7006.01 8068.17 7006.01ZM6040.44 7006.01 6040.44 7151.14 6118.95 7151.14C6148.69 7151.14 6170.89 7144.7 6185.56 7131.81 6200.23 7118.92 6207.56 7101.18 6207.56 7078.58 6207.56 7055.58 6200.23 7037.73 6185.56 7025.04 6170.89 7012.36 6148.69 7006.01 6118.95 7006.01ZM8329.92 6927.5 8644.53 6927.5 8644.53 7004.82 8425.67 7004.82 8425.67 7095.23 8618.96 7095.23 8618.96 7170.18 8425.67 7170.18 8425.67 7266.54 8652.27 7266.54 8652.27 7343.86 8329.92 7343.86ZM7893.32 6927.5 8073.52 6927.5C8110.79 6927.5 8142.91 6933.54 8169.87 6945.64 8196.83 6957.73 8217.65 6975.08 8232.32 6997.68 8246.99 7020.29 8254.33 7047.25 8254.33 7078.58 8254.33 7109.51 8246.99 7136.17 8232.32 7158.58 8217.65 7180.98 8196.83 7198.13 8169.87 7210.03L8169.03 7210.34 8262.06 7343.86 8157.98 7343.86 8077.95 7227.69 8073.52 7227.88 7989.67 7227.88 7989.67 7343.86 7893.32 7343.86ZM7422.21 6927.5 7518.56 6927.5 7518.56 7157.09C7518.56 7196.75 7526.69 7225.3 7542.94 7242.74 7559.2 7260.19 7582 7268.92 7611.34 7268.92 7640.68 7268.92 7663.48 7260.19 7679.73 7242.74 7695.99 7225.3 7704.12 7196.75 7704.12 7157.09L7704.12 6927.5 7799.28 6927.5 7799.28 7160.66C7799.28 7221.73 7782.62 7268.72 7749.32 7301.63 7716.01 7334.54 7669.82 7351 7610.74 7351 7551.67 7351 7505.48 7334.54 7472.17 7301.63 7438.87 7268.72 7422.21 7221.73 7422.21 7160.66ZM7010.95 6927.5 7373.74 6927.5 7373.74 7006.01 7240.52 7006.01 7240.52 7343.86 7144.17 7343.86 7144.17 7006.01 7010.95 7006.01ZM6861.98 6927.5 6958.33 6927.5 6958.33 7343.86 6861.98 7343.86ZM6380.69 6927.5 6460.39 6927.5 6667.36 7180.1 6667.36 6927.5 6762.52 6927.5 6762.52 7343.86 6683.42 7343.86 6475.85 7091.15 6475.85 7343.86 6380.69 7343.86ZM5944.1 6927.5 6124.3 6927.5C6161.57 6927.5 6193.69 6933.54 6220.65 6945.64 6247.61 6957.73 6268.43 6975.08 6283.1 6997.68 6297.77 7020.29 6305.1 7047.25 6305.1 7078.58 6305.1 7109.51 6297.77 7136.17 6283.1 7158.58 6268.43 7180.98 6247.61 7198.13 6220.65 7210.03L6219.8 7210.34 6312.83 7343.86 6208.75 7343.86 6128.72 7227.69 6124.3 7227.88 6040.44 7227.88 6040.44 7343.86 5944.1 7343.86ZM5472.99 6927.5 5569.34 6927.5 5569.34 7157.09C5569.34 7196.75 5577.46 7225.3 5593.72 7242.74 5609.98 7260.19 5632.77 7268.92 5662.12 7268.92 5691.46 7268.92 5714.25 7260.19 5730.51 7242.74 5746.77 7225.3 5754.89 7196.75 5754.89 7157.09L5754.89 6927.5 5850.05 6927.5 5850.05 7160.66C5850.05 7221.73 5833.4 7268.72 5800.09 7301.63 5766.79 7334.54 5720.6 7351 5661.52 7351 5602.44 7351 5556.25 7334.54 5522.95 7301.63 5489.64 7268.72 5472.99 7221.73 5472.99 7160.66ZM5094.96 6927.5 5409.58 6927.5 5409.58 7004.82 5191.31 7004.82 5191.31 7114.86 5384 7114.86 5384 7192.19 5191.31 7192.19 5191.31 7343.86 5094.96 7343.86ZM8879.76 6920.36C8905.93 6920.36 8931.71 6923.43 8957.08 6929.58 8982.46 6935.72 9004.86 6944.94 9024.29 6957.24L8994.55 7030.4C8975.12 7019.29 8955.69 7011.07 8936.26 7005.71 8916.84 7000.36 8897.8 6997.68 8879.17 6997.68 8860.54 6997.68 8845.27 6999.86 8833.38 7004.23 8821.48 7008.59 8812.96 7014.24 8807.8 7021.18 8802.65 7028.12 8800.07 7036.15 8800.07 7045.27 8800.07 7055.97 8804.43 7064.6 8813.15 7071.14 8821.88 7077.69 8833.38 7082.94 8847.65 7086.9 8861.92 7090.87 8877.68 7094.84 8894.93 7098.8 8912.18 7102.77 8929.42 7107.33 8946.67 7112.48 8963.92 7117.64 8979.68 7124.58 8993.95 7133.3 9008.23 7142.02 9019.83 7153.52 9028.75 7167.8 9037.67 7182.07 9042.13 7200.12 9042.13 7221.93 9042.13 7245.32 9035.58 7266.74 9022.5 7286.17 9009.42 7305.6 8989.89 7321.26 8963.92 7333.16 8937.95 7345.05 8905.14 7351 8865.49 7351 8832.19 7351 8800.27 7346.54 8769.74 7337.62 8739.21 7328.7 8714.63 7317.1 8695.99 7302.82L8728.7 7230.25C8746.54 7242.94 8767.66 7253.35 8792.04 7261.48 8816.42 7269.61 8841.11 7273.67 8866.09 7273.67 8885.12 7273.67 8900.48 7271.79 8912.18 7268.02 8923.88 7264.26 8932.5 7259 8938.05 7252.26 8943.6 7245.52 8946.38 7237.79 8946.38 7229.06 8946.38 7217.96 8942.01 7209.14 8933.29 7202.59 8924.57 7196.05 8913.07 7190.7 8898.8 7186.54 8884.52 7182.37 8868.76 7178.41 8851.51 7174.64 8834.27 7170.87 8817.02 7166.21 8799.77 7160.66 8782.53 7155.11 8766.76 7147.97 8752.49 7139.25 8738.22 7130.52 8726.62 7119.02 8717.7 7104.75 8708.78 7090.47 8704.32 7072.23 8704.32 7050.03 8704.32 7026.23 8710.76 7004.52 8723.65 6984.89 8736.53 6965.27 8755.96 6949.6 8781.93 6937.9 8807.9 6926.21 8840.51 6920.36 8879.76 6920.36ZM6688.76 6110.28 6688.76 6550.41 6807.57 6550.41C6843.87 6550.41 6870.49 6541.02 6887.43 6522.25 6904.36 6503.47 6912.83 6468 6912.83 6415.82L6912.83 6278.59C6912.83 6212.58 6902.54 6168.03 6881.95 6144.93 6861.36 6121.83 6826.07 6110.28 6776.08 6110.28ZM7678.15 5641.48 7590.78 6253.43 7767.63 6253.43ZM6688.76 5469.13 6688.76 5841.75 6762.57 5841.75C6805.25 5841.75 6836.84 5831.19 6857.35 5810.06 6877.86 5788.93 6888.11 5750.88 6888.11 5695.91L6888.11 5608.16C6888.11 5556.8 6879.91 5520.79 6863.5 5500.12 6847.09 5479.46 6820.94 5469.13 6785.07 5469.13ZM8138.64 5200.56 8442.22 5200.56 8595.54 5726.02 8748.87 5200.56 9030.3 5200.56 8731.13 6128.73 8731.13 6818.94 8437.81 6818.94 8437.81 6129.85ZM7500.53 5200.56 7875.54 5200.56 8135.15 6818.94 7844.66 6818.94 7842.73 6506.23 7842.73 6510.75 7558.36 6510.75 7513.36 6818.94 7241.24 6818.94ZM6395.47 5200.56 6791.8 5200.56C6925.78 5200.56 7024.2 5232.41 7087.08 5296.09 7149.96 5359.78 7181.4 5455.55 7181.4 5583.4L7181.4 5646.39C7181.4 5730.86 7167.15 5800.78 7138.66 5856.16 7117.28 5897.69 7090.01 5929.44 7056.83 5951.42L7048.77 5956.22 7064.91 5964.26C7159.08 6016.79 7206.16 6124.56 7206.16 6287.58L7206.16 6422.56C7206.16 6550.48 7172.08 6648.53 7103.92 6716.69 7035.76 6784.86 6936.98 6818.94 6807.57 6818.94L6395.47 6818.94ZM5958.87 5200.56 6252.16 5200.56 6252.16 6818.94 5958.87 6818.94ZM5072 5200.56 5882.68 5200.56 5882.68 5469.13 5624 5469.13 5624 6818.94 5330.72 6818.94 5330.72 5469.13 5072 5469.13ZM9853.23 4701.02C9984.26 4702.2 10185.6 4747.16 10248.1 4791.91 10319.5 4843.05 10592.9 5248.26 10710.8 5602.32 10828.7 5956.38 10874.9 6245.34 10837.1 6291.73 10799.2 6338.12 10633.8 6434.25 10524.8 6513.61 10415.7 6592.97 10239 6765.12 10037 6802.56 9949.16 6818.77 9815.61 6776.29 9751.74 6786.63 9687.87 6796.97 9551.98 6885.01 9442.48 6898.41 9332.97 6911.81 9094.72 6867.03 9094.72 6867.03 9036.05 6832.02 8979.8 6805.44 8962.58 6710.09 8945.36 6614.75 8979.42 6242.03 9048.36 6103.15 9077.56 5958.01 9312.83 5920.48 9420.26 5903.01 9527.69 5885.53 9642.42 5998.3 9692.92 5998.3 9729.52 5998.3 9805.26 5845.16 9981.98 5845.16 10144.6 5845.16 10254.4 5967.28 10298.8 5932.91 10332.1 5906.36 10299.1 5784.24 10281.7 5704.88 10264.2 5625.51 10260.4 5397.76 10252.1 5295.2 10243.8 5192.65 10131.7 5073.32 10081.2 5040.34 10030.7 5007.37 10022.6 5054.32 9942.6 5068.29 9862.57 5082.26 9727.75 5099.31 9667.42 4982.78 9625.26 4901.18 9763.35 4707.8 9801.98 4703.33 9817.22 4701.58 9834.51 4700.85 9853.23 4701.02Z" fill-rule="evenodd"/></g></svg>